<?xml version="1.0" encoding="UTF-8" standalone="no"?>
<!DOCTYPE svg PUBLIC "-//W3C//DTD SVG 1.1//EN" "http://www.w3.org/Graphics/SVG/1.1/DTD/svg11.dtd">
<svg width="100%" height="100%" viewBox="0 0 210 278" version="1.1" xmlns="http://www.w3.org/2000/svg" xmlns:xlink="http://www.w3.org/1999/xlink" xml:space="preserve" xmlns:serif="http://www.serif.com/" style="fill-rule:evenodd;clip-rule:evenodd;stroke-linejoin:round;stroke-miterlimit:2;">
    <g transform="matrix(1,0,0,1,107.897,260.995)">
        <path d="M0,-5.836C-0.392,-6.228 -0.703,-6.733 -1.223,-6.95C-1.724,-7.158 -2.298,-7.293 -2.874,-7.293C-3.45,-7.293 -3.95,-6.982 -4.452,-6.773C-4.971,-6.558 -5.512,-6.384 -5.904,-5.992C-6.296,-5.601 -6.686,-5.149 -6.901,-4.63C-7.11,-4.129 -7.252,-3.538 -7.252,-2.962C-7.252,-2.386 -6.849,-1.903 -6.641,-1.402C-6.425,-0.883 -6.379,-0.24 -5.987,0.151C-5.596,0.543 -4.954,0.593 -4.435,0.809C-3.934,1.017 -3.45,1.457 -2.874,1.457C-2.298,1.457 -1.781,1.095 -1.28,0.887C-0.761,0.671 -0.366,0.328 0.025,-0.064C0.417,-0.455 0.878,-0.8 1.094,-1.318C1.303,-1.82 1.557,-2.386 1.557,-2.962C1.557,-3.538 1.43,-4.156 1.222,-4.658C1.006,-5.178 0.392,-5.444 0,-5.836" style="fill:white;fill-rule:nonzero;"/>
    </g>
    <g transform="matrix(1,0,0,1,124.155,43.1692)">
        <path d="M0,-0.855C0,-0.857 -1.557,-1.798 -1.718,-1.326C-2.022,-0.429 -2.168,0.301 -2.226,0.943C-1.148,0.385 -0.146,-0.185 0,-0.855" style="fill:white;fill-rule:nonzero;"/>
    </g>
    <g transform="matrix(1,0,0,1,90.63,55.2964)">
        <path d="M0,4.551C0.988,8.997 0.776,9.044 1.77,13.489C1.771,13.494 2.628,13.409 2.629,13.414C2.754,15.342 7.483,17.849 14.243,17.849C21.004,17.849 26.514,15.398 26.639,13.47C26.64,13.466 26.358,13.414 26.359,13.409C27.351,8.968 28.481,9.219 29.469,4.777C30.457,0.33 30.449,0.329 31.437,-4.117C32.221,-7.638 31.081,-8.739 31.3,-11.184C31.095,-11.078 30.888,-10.972 30.683,-10.866C29.156,-6.093 29.031,-6.135 27.998,-1.231C26.966,3.674 27.354,3.755 26.322,8.659C26.187,9.304 25.347,9.905 24.701,9.768C24.055,9.632 24.22,8.891 24.355,8.245C25.307,3.726 24.587,3.574 25.539,-0.945C26.49,-5.465 27.431,-5.311 28.048,-9.888C27.335,-9.671 25.376,-9.709 24.543,-9.528C23.429,-4.851 24.96,-4.534 24.223,0.217C23.484,4.967 22.396,4.799 21.659,9.549C21.559,10.199 21.595,11.087 20.943,10.986C20.291,10.885 19.614,9.898 19.716,9.245C20.421,4.701 20.602,4.729 21.307,0.184C22.013,-4.361 22.487,-4.303 22.813,-8.89C22.04,-8.774 21.281,-8.663 20.446,-8.578C19.653,-3.998 20.268,-3.932 19.876,0.699C19.484,5.33 18.502,5.247 18.11,9.879C18.055,10.535 18.222,10.88 17.565,10.824C16.907,10.767 17.195,10.465 17.252,9.804C17.635,5.272 16.647,5.189 17.03,0.656C17.414,-3.876 18.016,-3.844 17.962,-8.392C17.091,-8.34 16.221,-8.306 15.309,-8.291C14.828,-3.773 15.454,-3.746 15.426,0.798C15.397,5.341 15.53,5.342 15.503,9.885C15.5,10.546 14.654,11.535 13.994,11.531C13.334,11.527 12.869,10.529 12.875,9.87C12.903,5.328 13.687,5.334 13.715,0.792C13.743,-3.749 14.38,-3.871 13.957,-8.393C13.05,-8.41 10.394,-8.361 9.527,-8.416C9.478,-3.864 10.355,-3.846 10.739,0.69C11.122,5.226 11.803,5.168 12.187,9.704C12.244,10.364 11.442,11.867 10.784,11.924C10.127,11.98 10.43,10.516 10.375,9.859C9.983,5.221 9.241,5.284 8.849,0.647C8.457,-3.991 8.426,-3.987 7.632,-8.573C6.794,-8.662 5.505,-8.755 4.73,-8.878C5.058,-4.281 5.956,-4.345 6.663,0.209C7.37,4.763 7.235,4.784 7.942,9.339C8.043,9.991 7.984,11.013 7.332,11.113C6.679,11.215 6.274,10.265 6.173,9.614C5.433,4.851 5.685,4.812 4.945,0.049C4.206,-4.716 5.043,-4.943 3.925,-9.633C3.087,-9.821 0.251,-9.649 -0.461,-9.876C0.161,-5.28 2.261,-5.629 3.216,-1.091C4.172,3.448 2.629,3.773 3.585,8.312C3.721,8.958 4.332,10.251 3.687,10.387C3.041,10.525 3.217,9.063 3.082,8.418C2.042,3.479 2.015,3.485 0.974,-1.455C-0.066,-6.393 -0.562,-6.312 -2.038,-11.139C-3.167,-11.766 -3.471,-12.554 -3.633,-13.296C-3.633,-13.298 -4.785,-13.043 -4.785,-13.041C-3.799,-8.597 -3.691,-8.621 -2.704,-4.178C-1.716,0.267 -0.988,0.105 0,4.551" style="fill:white;fill-rule:nonzero;"/>
    </g>
    <g transform="matrix(1,0,0,1,114.629,36.8034)">
        <path d="M0,-8.724C3.237,-4.724 5.716,-5.593 5.001,-0.59C8.08,0.363 9.972,4.704 -2.004,6.688C-6.136,7.373 -9.937,7.313 -13.356,6.887C-16.763,6.463 -18.623,7.013 -20.139,7.025C-20.069,7.043 -20.001,7.061 -19.931,7.078C-17.001,7.79 -13.557,8.347 -9.756,8.347C-5.955,8.347 -2.522,7.74 0.406,7.028C5.284,5.843 7.83,4.246 7.83,1.97C7.83,0.838 8.175,-0.646 6.776,-1.578C6.824,-1.873 6.994,-1.754 6.994,-2.056C6.994,-4.793 4.503,-7.413 1.231,-9.119C1.235,-9.177 1.189,-9.075 1.189,-9.132C1.189,-11.421 -0.14,-14.096 -2.82,-15.363C-2.788,-15.903 -3.536,-15.756 -3.651,-16.329C-3.701,-16.582 -3.765,-16.828 -3.83,-17.071C-3.831,-16.317 -3.89,-15.56 -4.019,-14.822C-2.296,-11.231 0.793,-12.456 0,-8.724" style="fill:white;fill-rule:nonzero;"/>
    </g>
    <g transform="matrix(1,0,0,1,92.2516,11.9213)">
        <path d="M0,31.284C-0.611,30.891 -1.268,30.275 -2.056,29.325C1.161,29.709 4.349,29.997 7.511,29.911C11.059,29.814 14.585,30.164 17.333,29.496C21.839,28.402 24.292,25.83 23.906,23.279C23.572,21.071 20.94,19.289 17.447,19.377C9.118,19.59 1.583,21.304 5.321,16.848C9.479,17.481 13.02,17.468 15.015,16.938C20.305,15.533 19.12,11.588 16.305,11.367C14.49,11.224 11.581,13.693 11.839,11.603C14.314,10.755 17.531,5.754 12.389,0.836C12.505,0.662 12.623,0.511 12.74,0.37C12.353,0.188 11.983,0.059 11.65,0C12.535,6.184 9.928,6.418 7.803,8.145L7.524,7.8C7.36,7.933 6.696,7.524 6.547,7.688C6.116,8.184 6.018,9.028 6.838,9.926C8.029,11.228 10.632,9.979 10.033,11.623C9.285,13.673 7.521,12.557 5.719,10.744C3.243,12.017 1.712,13.564 1.712,15.75C1.712,15.807 1.475,15.416 1.478,15.473C-1.793,17.18 -2.659,20.089 -2.659,22.826C-2.659,23.128 -3.159,23.89 -3.109,24.185C-4.508,25.117 -5.874,25.72 -5.874,26.852C-5.874,28.724 -3.541,30.17 0,31.284" style="fill:white;fill-rule:nonzero;"/>
    </g>
    <g transform="matrix(1,0,0,1,94.4898,43.2114)">
        <path d="M0,0.617C-0.788,0.422 -1.537,0.214 -2.238,-0.006C-1.475,0.485 -0.782,0.623 0,0.617" style="fill:white;fill-rule:nonzero;"/>
    </g>
    <g transform="matrix(1,0,0,1,110.799,9.00324)">
        <path d="M0,10.729C0.011,5.281 -3.056,0 -5.807,3.288C-3.704,4.272 -1.006,6.988 0,10.729" style="fill:white;fill-rule:nonzero;"/>
    </g>
    <g transform="matrix(1,0,0,1,37.6456,110.321)">
        <path d="M0,-8.174L-12.26,-8.174C-14.86,-8.05 -15.232,-7.802 -15.355,-5.078C-15.479,-0.868 -15.479,2.476 -15.355,6.934C-15.232,9.659 -14.736,9.534 -11.517,9.659C-11.641,6.81 -11.641,2.847 -11.517,-0.125C-11.269,-3.964 -11.393,-4.211 -7.307,-4.211L4.706,-4.211C8.916,-4.211 11.641,-5.326 11.888,-8.793C12.136,-11.641 12.383,-15.976 11.269,-17.09C10.773,-17.461 10.402,-17.709 8.916,-17.833L8.916,-13.004C8.792,-7.678 5.448,-8.174 0,-8.174" style="fill:white;fill-rule:nonzero;"/>
    </g>
    <g transform="matrix(1,0,0,1,39.2555,164.56)">
        <path d="M0,-21.548C1.733,-21.671 3.591,-22.786 3.715,-24.52C3.963,-27.244 3.963,-29.597 3.838,-32.197C3.715,-35.17 3.467,-36.036 0.495,-36.036C0.495,-34.055 0.372,-32.197 0.248,-30.464C0,-26.253 -0.372,-25.51 -4.582,-25.51L-13.002,-25.51C-15.727,-25.51 -16.594,-24.396 -16.965,-21.671C-17.337,-19.07 -17.337,-17.213 -17.337,-12.632L-17.337,1.485C-17.337,10.278 -18.575,10.525 -26.377,10.525L-27.12,10.525C-26.872,14.488 -25.881,14.488 -20.185,14.488C-14.736,14.488 -13.374,13.126 -13.374,7.678L-13.374,-16.966C-13.374,-22.29 -13.002,-21.548 -8.297,-21.548C-4.706,-21.548 -1.857,-21.423 0,-21.548" style="fill:white;fill-rule:nonzero;"/>
    </g>
    <g transform="matrix(1,0,0,1,19.69,92.6132)">
        <path d="M0,73.432L0,52.504C0,47.303 0.99,45.694 3.467,44.703C4.21,44.455 5.696,44.207 7.925,44.083C12.631,44.083 14.983,43.96 14.736,43.96C18.203,43.836 17.708,40.74 17.708,35.787C17.584,29.719 17.46,29.471 11.269,29.471C3.343,29.348 0.866,30.09 0.247,25.509C0.124,24.642 0,23.28 0,21.546C0.124,15.974 0.124,12.506 0.247,11.268C0.495,6.438 4.458,7.057 7.677,7.057L13.002,6.933L18.327,6.933C21.423,6.933 24.023,7.306 24.271,4.333C24.519,2.351 24.519,0.247 24.395,-2.106C24.395,-6.069 23.776,-6.565 19.937,-6.812L-1.115,-6.812C-6.192,-6.812 -9.04,-6.812 -10.031,-6.688C-12.755,-6.688 -13.499,-5.945 -13.622,-3.221C-13.746,-2.725 -13.746,-1.363 -13.746,0.742L-13.746,32.196L-18.699,35.044C-19.318,35.415 -19.69,36.035 -19.69,36.777C-19.69,37.644 -19.318,38.14 -18.699,38.511L-13.746,41.359L-13.746,73.556C-13.746,80.244 -13.622,80.244 -6.812,80.244C0,80.244 0,80.244 0,73.432" style="fill:white;fill-rule:nonzero;"/>
    </g>
    <g transform="matrix(1,0,0,1,54.8556,127.285)">
        <path d="M0,3.839L4.954,6.687L4.954,38.636C4.954,42.104 4.582,45.199 7.926,45.447C9.164,45.571 10.897,45.571 13.25,45.571C19.318,45.571 19.566,45.447 19.566,39.255L19.566,6.687L24.519,3.839C25.138,3.467 25.51,2.972 25.51,2.105C25.51,1.362 25.138,0.743 24.519,0.372L19.566,-2.476L19.566,-34.054C19.566,-38.265 20.061,-40.989 16.717,-41.36C14.365,-41.484 6.935,-41.732 5.696,-40.493C5.201,-39.998 4.954,-38.14 4.954,-35.168L4.954,-2.476L0,0.372C-0.743,0.743 -1.114,1.362 -1.114,2.105C-1.114,2.972 -0.743,3.467 0,3.839" style="fill:white;fill-rule:nonzero;"/>
    </g>
    <g transform="matrix(1,0,0,1,80.6129,92.1166)">
        <path d="M0,33.683L0,7.307C0,3.096 0.496,0.371 -2.848,0L-3.962,0L-3.962,31.454L-0.124,33.683L0,33.683Z" style="fill:white;fill-rule:nonzero;"/>
    </g>
    <g transform="matrix(1,0,0,1,76.6505,175.58)">
        <path d="M0,-40.369L0,-9.04C0,-0.495 0,-0.495 -8.545,-0.495L-10.65,-0.495C-10.526,1.61 -10.031,3.22 -7.678,3.344C-6.439,3.468 -4.706,3.468 -2.353,3.468C2.724,3.468 3.962,2.23 3.962,-2.848L3.962,-35.416L8.916,-38.265C9.535,-38.636 9.907,-39.131 9.907,-39.997C9.907,-40.741 9.535,-41.36 8.916,-41.731L5.201,-43.837C4.953,-43.341 4.458,-42.846 3.839,-42.474L0,-40.369Z" style="fill:white;fill-rule:nonzero;"/>
    </g>
    <g transform="matrix(1,0,0,1,114.665,93.231)">
        <path d="M0,9.907C0.866,8.174 2.477,5.201 3.096,3.839C3.096,1.363 2.972,-0.619 0.495,-0.743L-0.867,-0.743L-0.867,3.839C-0.867,6.068 -0.991,8.297 -0.991,9.659C-0.991,10.526 -0.372,10.65 0,9.907" style="fill:white;fill-rule:nonzero;"/>
    </g>
    <g transform="matrix(1,0,0,1,120.237,161.959)">
        <path d="M0,-64.889C-1.238,-62.412 -2.229,-60.431 -2.972,-59.069C-3.839,-57.211 -4.706,-55.972 -5.325,-55.478C-6.315,-54.735 -7.802,-55.106 -8.05,-56.221C-8.792,-58.821 -8.668,-61.05 -8.668,-64.889L-8.668,-69.842C-8.668,-72.814 -8.421,-75.539 -11.269,-75.662C-14.117,-75.786 -16.841,-75.786 -19.566,-75.662C-22.538,-75.539 -22.29,-72.69 -22.29,-68.852L-22.29,-37.15L-27.244,-34.302C-27.863,-33.807 -28.234,-33.311 -28.234,-32.444C-28.234,-31.701 -27.863,-31.206 -27.244,-30.711L-22.29,-27.863L-22.29,3.22C-22.29,5.448 -22.29,6.935 -22.166,7.678C-22.042,9.906 -21.299,10.774 -19.194,10.774C-16.841,10.898 -14.365,10.898 -12.012,10.898C-9.659,10.65 -8.916,9.906 -8.668,7.43L-8.668,-0.867C-8.544,-9.164 -8.544,-13.25 -8.544,-13.003C-8.544,-15.231 -8.05,-16.842 -7.059,-18.08C-6.439,-18.822 -5.077,-18.822 -4.458,-18.08C-3.839,-17.337 -3.096,-16.098 -2.353,-14.241C-1.857,-13.127 -0.124,-8.668 2.849,-1.114C4.582,3.343 5.448,5.696 5.572,6.192C6.811,9.659 9.164,11.145 12.508,10.898L15.975,10.898C19.813,10.898 20.309,10.898 22.29,10.65C23.28,10.402 23.9,9.411 23.652,8.421C23.404,7.306 23.033,6.192 22.538,5.077C17.461,-7.306 12.755,-19.07 8.297,-30.092C7.059,-33.188 5.944,-35.664 5.077,-37.645C4.21,-39.503 4.21,-41.361 5.201,-43.342C5.077,-42.971 5.572,-43.961 6.811,-46.314C13.126,-58.945 17.213,-66.994 18.822,-70.338C19.441,-71.576 20.061,-72.814 20.433,-73.805C20.804,-74.672 20.309,-75.539 19.441,-75.662C15.975,-76.034 11.889,-76.034 7.307,-75.662C5.077,-75.539 4.458,-73.433 2.972,-70.833C2.353,-69.595 1.485,-67.614 0,-64.889" style="fill:white;fill-rule:nonzero;"/>
    </g>
    <g transform="matrix(1,0,0,1,117.761,149.823)">
        <path d="M0,25.757L0,17.461C0.124,9.287 0.124,5.2 0.124,5.325L0.124,4.086L-2.229,-1.733C-2.972,-3.468 -3.468,-2.972 -3.591,-2.105C-3.715,-1.486 -3.715,-0.867 -3.715,-0L-3.963,11.269L-3.963,19.69C-4.334,23.28 -5.944,24.891 -9.411,25.262L-13.622,25.262C-13.498,25.51 -13.498,25.757 -13.498,26.005C-13.374,28.234 -12.631,29.101 -10.526,29.101C-8.173,29.225 -5.696,29.225 -3.344,29.225C-0.991,28.977 -0.248,28.234 0,25.757" style="fill:white;fill-rule:nonzero;"/>
    </g>
    <g transform="matrix(1,0,0,1,127.296,147.719)">
        <path d="M0,-24.272C0.867,-22.291 2.105,-19.814 3.344,-16.718C7.802,-5.697 12.507,6.067 17.584,18.451C21.3,27.615 20.185,27.367 8.916,27.367L4.953,27.367C6.315,30.338 8.545,31.206 11.641,31.206L20.309,31.206C25.138,31.206 26.376,28.977 24.271,24.147C19.194,11.764 14.983,1.362 10.525,-9.659C9.287,-12.755 7.183,-17.709 6.315,-19.69C3.715,-26.005 3.715,-26.005 4.953,-28.358C11.269,-40.989 14.364,-46.686 15.975,-50.029C16.594,-51.268 17.213,-52.506 17.584,-53.497C17.956,-54.363 17.461,-55.478 16.594,-55.478L13.993,-55.478L13.745,-55.106C11.517,-50.524 10.402,-48.419 0.124,-28.111C-0.495,-26.749 -0.619,-25.634 0,-24.272" style="fill:white;fill-rule:nonzero;"/>
    </g>
    <g transform="matrix(1,0,0,1,197.384,94.9654)">
        <path d="M0,27.986C1.361,28.729 2.848,29.719 4.21,30.463C3.343,25.261 1.733,16.098 -0.372,3.343C-0.743,1.362 -1.238,-0.867 -2.105,-1.734C-2.849,-2.229 -3.22,-2.477 -5.201,-2.477C-4.334,2.6 -3.592,7.182 -2.849,11.145C-1.362,20.432 -0.372,25.757 0,27.986" style="fill:white;fill-rule:nonzero;"/>
    </g>
    <g transform="matrix(1,0,0,1,181.161,178.924)">
        <path d="M0,-23.033L-0.247,-23.033L-0.371,-23.157L-0.866,-23.157C-2.848,-23.157 -5.201,-23.157 -5.696,-22.785C-6.315,-22.29 -6.687,-19.689 -6.811,-18.698C-6.811,-17.956 -7.183,-16.47 -7.554,-13.745L-8.544,-8.421C-9.04,-5.572 -11.021,-3.963 -13.869,-3.963C-15.727,-3.839 -17.584,-3.839 -19.194,-3.839L-19.813,-3.839C-20.061,-1.609 -19.937,-0.124 -17.337,-0C-14.736,0.124 -14.117,-0 -10.278,-0C-6.191,-0 -5.201,-3.22 -4.829,-5.077C-3.839,-10.649 -3.715,-11.763 -3.591,-12.755C-2.848,-18.451 -2.601,-19.194 2.353,-19.317C1.733,-23.033 0.495,-23.033 0,-23.033" style="fill:white;fill-rule:nonzero;"/>
    </g>
    <g transform="matrix(1,0,0,1,178.933,137.068)">
        <path d="M0,-8.173C-0.372,-6.316 -0.743,-3.839 -0.991,-0.495L-0.991,0L0.123,0C0.619,0 1.114,0 1.362,-0.124L1.362,-0.743C1.238,-1.981 0.619,-5.077 0.247,-7.058C0.123,-7.553 0.123,-7.801 0,-8.173" style="fill:white;fill-rule:nonzero;"/>
    </g>
    <g transform="matrix(1,0,0,1,209.52,138.802)">
        <path d="M0,32.816C-0.124,31.825 -1.981,21.299 -5.325,1.114L-0.991,-1.362C-0.372,-1.734 0,-2.229 0,-3.096C0,-3.839 -0.372,-4.458 -0.991,-4.83L-5.572,-7.43C-5.944,-6.811 -6.439,-6.192 -7.307,-5.573L-10.155,-3.839C-8.297,7.182 -6.935,15.355 -6.068,20.185C-5.449,24.271 -5.201,25.757 -5.077,26.253C-4.334,30.835 -4.087,33.682 -4.953,34.673C-6.439,36.407 -9.04,36.407 -14.86,36.407C-15.355,36.407 -15.851,36.283 -16.223,36.283C-15.975,37.893 -15.728,38.759 -14.984,39.378C-14.489,39.875 -13.746,40.246 -12.508,40.246C-2.477,40.246 -1.857,40.246 -0.248,38.883C0.742,38.016 0.619,36.407 0,32.816" style="fill:white;fill-rule:nonzero;"/>
    </g>
    <g transform="matrix(1,0,0,1,175.589,121.341)">
        <path d="M0,16.718C0,16.346 0,15.727 0.124,15.108C0.495,9.906 1.238,6.068 2.104,3.715C2.601,2.848 3.963,2.353 4.706,3.715C5.077,4.458 5.325,5.077 5.448,5.572C5.448,5.945 6.811,12.508 7.059,14.736C7.183,15.851 7.183,16.594 7.183,16.842C6.935,18.452 0,18.575 0,16.718M26.129,50.772C27.119,49.905 27.243,47.676 26.624,44.085C26.5,43.094 24.643,32.568 21.299,12.384L25.51,9.906C26.129,9.535 26.5,9.04 26.5,8.174C26.5,7.43 26.129,6.811 25.51,6.44L19.689,3.096C19.565,2.105 17.708,-8.792 14.241,-29.348C13.869,-31.33 13.374,-33.559 12.508,-34.426C12.012,-34.797 11.021,-35.045 9.783,-35.168L-1.486,-35.168C-5.448,-35.168 -6.439,-34.426 -7.183,-30.339C-8.297,-23.528 -10.154,-12.383 -12.879,2.972L-18.822,6.44C-19.566,6.811 -19.937,7.43 -19.937,8.174C-19.937,9.04 -19.566,9.535 -18.822,9.906L-14.488,12.508C-14.488,12.631 -14.612,13.003 -14.612,13.374C-15.355,17.708 -17.089,28.234 -20.061,45.076C-20.557,48.667 -21.423,51.267 -17.956,51.391C-15.355,51.515 -12.136,51.515 -8.297,51.391C-6.563,51.391 -5.572,50.524 -5.201,48.667C-4.21,42.97 -3.591,39.627 -3.468,38.636C-2.725,32.321 -1.733,32.073 4.706,32.073C4.706,32.073 5.077,32.073 5.696,32.197C10.03,32.321 10.278,38.265 10.402,39.504C10.649,40.494 10.773,41.98 11.021,43.838C11.517,47.801 11.641,49.658 12.755,50.648C13.25,51.143 13.993,51.391 15.231,51.515C16.223,51.515 25.015,51.886 26.129,50.772" style="fill:white;fill-rule:nonzero;"/>
    </g>
    <g transform="matrix(1,0,0,1,49.7765,199.638)">
        <path d="M0,8.914C-0.14,9.162 -0.358,9.356 -0.655,9.496C-0.951,9.636 -1.335,9.727 -1.806,9.77C-2.277,9.814 -2.84,9.836 -3.494,9.836L-10.509,9.836L-10.509,6.027L-3.494,6.027C-2.84,6.027 -2.277,6.05 -1.806,6.094C-1.335,6.137 -0.951,6.226 -0.655,6.361C-0.358,6.497 -0.14,6.688 0,6.937C0.14,7.186 0.209,7.516 0.209,7.925C0.209,8.336 0.14,8.665 0,8.914M-10.509,-0.922L-3.351,-0.922C-2.862,-0.922 -2.46,-0.874 -2.146,-0.777C-1.833,-0.682 -1.583,-0.556 -1.4,-0.399C-1.217,-0.241 -1.091,-0.06 -1.021,0.144C-0.951,0.35 -0.917,0.566 -0.917,0.793C-0.917,1.019 -0.951,1.236 -1.021,1.44C-1.091,1.645 -1.217,1.822 -1.4,1.971C-1.583,2.119 -1.833,2.237 -2.146,2.324C-2.46,2.411 -2.862,2.455 -3.351,2.455L-10.509,2.455L-10.509,-0.922ZM4.005,5.406C3.612,5.053 3.104,4.773 2.48,4.568C1.856,4.363 1.108,4.23 0.235,4.169C1.474,3.942 2.382,3.486 2.958,2.802C3.534,2.116 3.822,1.189 3.822,0.02C3.822,-0.634 3.736,-1.201 3.566,-1.681C3.396,-2.16 3.161,-2.571 2.86,-2.911C2.559,-3.251 2.206,-3.526 1.799,-3.735C1.394,-3.945 0.955,-4.108 0.484,-4.227C0.013,-4.345 -0.482,-4.425 -1.001,-4.469C-1.521,-4.512 -2.038,-4.534 -2.552,-4.534L-15.365,-4.534L-15.365,13.448L-2.316,13.448C-1.645,13.448 -0.995,13.422 -0.367,13.37C0.262,13.317 0.853,13.224 1.407,13.089C1.961,12.953 2.467,12.77 2.925,12.539C3.383,12.308 3.776,12.007 4.103,11.636C4.43,11.266 4.685,10.822 4.869,10.308C5.052,9.793 5.143,9.186 5.143,8.488C5.143,7.808 5.052,7.212 4.869,6.702C4.685,6.191 4.397,5.759 4.005,5.406" style="fill:white;fill-rule:nonzero;"/>
    </g>
    <g transform="matrix(1,0,0,1,65.5074,202.014)">
        <path d="M0,4.162L3.298,-2.46L6.57,4.162L0,4.162ZM5.981,-6.91L0.563,-6.91L-8.847,11.072L-3.429,11.072L-1.74,7.67L8.285,7.67L9.973,11.072L15.392,11.072L5.981,-6.91Z" style="fill:white;fill-rule:nonzero;"/>
    </g>
    <g transform="matrix(1,0,0,1,93.0704,204.461)">
        <path d="M0,-0.732L12.106,-9.357L5.602,-9.357L-4.345,-2.499L-4.345,-9.357L-9.227,-9.357L-9.227,8.625L-4.345,8.625L-4.345,1.153L5.837,8.625L12.918,8.625L0,-0.732Z" style="fill:white;fill-rule:nonzero;"/>
    </g>
    <g transform="matrix(1,0,0,1,127.19,198.938)">
        <path d="M0,10.314L-13.402,10.314L-13.402,6.806L-0.864,6.806L-0.864,2.971L-13.402,2.971L-13.402,0.001L-0.184,0.001L-0.184,-3.834L-18.389,-3.834L-18.389,14.148L0,14.148L0,10.314Z" style="fill:white;fill-rule:nonzero;"/>
    </g>
    <g transform="matrix(1,0,0,1,146.188,206.516)">
        <path d="M0,-4.842C-0.092,-4.598 -0.251,-4.4 -0.479,-4.246C-0.705,-4.094 -1.008,-3.983 -1.388,-3.913C-1.768,-3.843 -2.241,-3.809 -2.808,-3.809L-9.456,-3.809L-9.456,-7.655L-2.808,-7.655C-2.241,-7.655 -1.768,-7.621 -1.388,-7.551C-1.008,-7.482 -0.705,-7.37 -0.479,-7.218C-0.251,-7.065 -0.092,-6.866 0,-6.622C0.092,-6.378 0.137,-6.081 0.137,-5.732C0.137,-5.383 0.092,-5.086 0,-4.842M2.598,-1.23C3.077,-1.509 3.499,-1.852 3.86,-2.257C4.223,-2.663 4.51,-3.149 4.725,-3.717C4.937,-4.283 5.045,-4.947 5.045,-5.706C5.045,-6.57 4.916,-7.353 4.659,-8.055C4.401,-8.758 3.986,-9.358 3.416,-9.855C2.844,-10.352 2.103,-10.736 1.19,-11.006C0.278,-11.277 -0.832,-11.412 -2.141,-11.412L-14.312,-11.412L-14.312,6.57L-9.456,6.57L-9.456,-0.052L-4.155,-0.052L1.289,6.57L6.969,6.57L1.079,-0.536C1.611,-0.719 2.117,-0.95 2.598,-1.23" style="fill:white;fill-rule:nonzero;"/>
    </g>
    <g transform="matrix(1,0,0,1,164.464,205.849)">
        <path d="M0,-3.508L-5.706,-10.745L-11.15,-10.745L-2.435,-0.105L-2.435,7.237L2.408,7.237L2.408,-0.105L11.125,-10.745L5.68,-10.745L0,-3.508Z" style="fill:white;fill-rule:nonzero;"/>
    </g>
    <g transform="matrix(1,0,0,1,78.1241,242.459)">
        <path d="M0,-12.938L0.111,-12.477L0.221,-7.096L0.351,-6.691L0.239,-6.34L0.277,-1.495L0.405,-0.886L0.277,-0.425L0.277,0.072L5.878,0.146L5.731,-2.619L5.086,-2.563L4.828,-2.397L4.441,-2.507L3.87,-2.434L2.875,-2.49L2.764,-4.185L2.617,-4.498L3.28,-4.443L5.804,-4.682L5.86,-5.457L5.75,-5.733L5.916,-6.065L6.008,-7.373L4.091,-7.501L3.041,-7.428L3.059,-10.285L2.764,-10.653L3.28,-10.69L4.22,-10.763L5.86,-10.579L6.229,-10.395L6.375,-12.957L2.728,-13.084L0,-12.938Z" style="fill:white;fill-rule:nonzero;"/>
    </g>
    <g transform="matrix(1,0,0,1,88.2042,237.648)">
        <path d="M0,-3.391L-0.59,-4.018L-0.461,-6.027L-0.185,-5.842L1.05,-5.915L1.105,-4.957L1.068,-4.018L3.077,-4.054L3.519,-4.037L3.409,-4.442L3.519,-7.28L2.561,-7.629L2.045,-7.666L1.824,-7.887L0.552,-8.348L-1.401,-7.98L-2.765,-7.114L-3.133,-4.626L-2.672,-1.714L-1.511,-1.272L-1.216,-1.346L-0.811,-0.995L0.866,-0.351L1.215,0.461L1.05,2.543L0.626,2.321L-0.258,2.321L-0.369,1.178L-0.388,0.147L-3.06,0.054L-2.912,0.588L-3.096,3.943L-2.322,4.201L-1.843,4.182L-1.346,4.533L-0.092,4.957L2.505,4.55L3.611,3.408L3.796,1.75L3.704,1.344L3.851,1.124L3.943,0.405L3.059,-2.286L0,-3.391Z" style="fill:white;fill-rule:nonzero;"/>
    </g>
    <g transform="matrix(1,0,0,1,97.4728,242.348)">
        <path d="M0,-12.863L-0.664,-12.642L-1.014,-12.845L-3.446,-12.827L-5.049,-12.9L-4.957,-10.062L-4.404,-10.284L-3.391,-10.284L-3.464,-7.685L-3.298,-7.058L-3.501,-6.58L-3.519,0.11L-2.93,-0.038L-0.11,-0.075L-0.332,-0.646L-0.516,-1.918L-0.571,-2.857L-0.719,-3.337L-0.608,-3.613L-0.848,-8.036L-0.719,-10.781L1.216,-10.689L1.253,-12.973L0.848,-12.863L0,-12.863Z" style="fill:white;fill-rule:nonzero;"/>
    </g>
    <g transform="matrix(1,0,0,1,106.65,231.934)">
        <path d="M0,7.814L0.073,6.414L-0.147,6.1L0.405,5.787L2.635,3.834L3.427,2.267L3.372,-1.473L1.437,-2.616L-0.497,-2.505L-2.617,-1.307L-2.728,0.424L-2.617,0.775L-2.764,1.382L-2.764,1.972L-0.24,1.843L-0.185,1.033L-0.203,-0.054L1.105,-0.073L0.902,0.351L0.902,1.954L0.239,2.452L0,2.82L-0.276,2.82L-1.198,3.52L-2.746,5.75L-2.764,7.077L-2.581,7.298L-2.746,7.538L-2.635,9.804L-0.774,10.43L0.902,10.413L1.289,10.264L1.897,10.394L3.427,10.376L3.537,7.629L3.004,7.74L0,7.814Z" style="fill:white;fill-rule:nonzero;"/>
    </g>
    <g transform="matrix(1,0,0,1,115.182,232.911)">
        <path d="M0,5.713L0,6.579L-0.608,6.763L-1.622,6.505L-1.604,1.807L-1.088,-0.995L-0.425,-0.921L-0.074,-1.105L0,4.294L0.146,4.976L0,5.713ZM2.543,1.124L2.579,0.222L2.303,-2.653L-0.94,-3.888L-1.143,-3.611L-3.372,-2.635L-3.336,-2.045L-3.76,-0.387L-3.705,0.166L-4.109,1.051L-4.46,2.487L-3.705,8.458L-3.188,8.514L-2.783,8.863L-1.106,9.601L1.492,9.104L1.916,9.233L2.118,7.998L2.082,7.187L2.303,6.893L2.893,3.207L2.708,1.438L2.543,1.124Z" style="fill:white;fill-rule:nonzero;"/>
    </g>
    <g transform="matrix(1,0,0,1,121.428,231.934)">
        <path d="M0,7.814L0.073,6.414L-0.148,6.1L0.405,5.787L2.635,3.834L3.427,2.267L3.372,-1.473L1.437,-2.616L-0.498,-2.505L-2.617,-1.307L-2.728,0.424L-2.617,0.775L-2.765,1.382L-2.765,1.972L-0.24,1.843L-0.185,1.033L-0.203,-0.054L1.105,-0.073L0.902,0.351L0.902,1.954L0.239,2.452L0,2.82L-0.276,2.82L-1.198,3.52L-2.746,5.75L-2.765,7.077L-2.581,7.298L-2.746,7.538L-2.636,9.804L-0.774,10.43L0.902,10.413L1.289,10.264L1.897,10.394L3.427,10.376L3.537,7.629L3.003,7.74L0,7.814Z" style="fill:white;fill-rule:nonzero;"/>
    </g>
    <g transform="matrix(1,0,0,1,129.389,242.401)">
        <path d="M0,-13.027L-0.093,-9.729L0.036,-9.508L-0.111,-9.048L-0.111,-6.928L-1.052,-6.891L-1.364,-6.671L-1.18,-12.806L-3.797,-12.843L-3.667,-12.235L-3.705,-8.605L-3.557,-7.5L-3.705,-6.818L-3.723,-4.496L-0.848,-4.57L-0.24,-4.791L-0.204,-2.45L-0.24,0.074L0.479,-0.073L2.358,-0.11L2.34,-1.529L2.358,-2.358L2.211,-2.985L2.358,-3.353L2.413,-7.168L2.358,-12.53L2.487,-13.101L0,-13.027Z" style="fill:white;fill-rule:nonzero;"/>
    </g>
    <g transform="matrix(1,0,0,1,209.302,4.11954)">
        <path d="M0,39.102C0,40.21 -0.508,41.261 -1.244,41.997C-1.974,42.726 -3.024,43.255 -4.132,43.255C-5.247,43.255 -6.134,42.561 -6.862,41.825C-7.592,41.096 -8.393,40.21 -8.393,39.102C-8.393,38.48 -7.777,37.979 -7.521,37.451C-7.57,37.408 -7.735,37.143 -7.785,37.093C-8.356,36.571 -9.15,36.128 -9.887,35.485C-10.501,34.949 -11.259,34.477 -11.995,33.884C-12.41,33.548 -12.882,33.262 -13.311,32.904C-14.118,32.232 -14.861,31.432 -15.777,30.731C-16.935,29.852 -16.756,29.616 -17.922,28.744C-19.079,27.872 -19.051,27.815 -20.23,26.971C-21.567,26.013 -21.667,26.149 -23.019,25.22C-24.376,24.29 -24.27,24.126 -25.642,23.226C-27.164,22.225 -27.364,22.525 -28.908,21.56C-30.452,20.588 -30.252,20.266 -31.804,19.308C-32.711,18.793 -33.74,18.372 -34.72,17.821C-35.649,17.307 -36.729,17.014 -37.715,16.492C-38.651,15.984 -39.738,15.727 -40.731,15.227C-41.683,14.74 -42.633,14.219 -43.634,13.747C-44.606,13.289 -45.6,12.867 -46.615,12.432C-47.688,11.938 -48.631,11.066 -49.789,10.587C-50.875,10.137 -51.94,9.515 -53.112,9.064C-54.214,8.65 -55.429,8.407 -56.615,7.985C-57.724,7.599 -58.938,7.385 -60.14,6.992C-61.255,6.62 -62.441,6.341 -63.649,5.969C-64.664,5.655 -65.715,5.447 -66.78,5.162C-67.803,4.875 -68.703,4.054 -69.775,3.789C-70.805,3.532 -71.956,3.696 -73.035,3.453C-74.071,3.231 -75.065,2.695 -76.152,2.481C-77.188,2.281 -78.325,2.445 -79.411,2.252C-80.455,2.066 -81.435,1.337 -82.528,1.165C-83.614,1.008 -84.772,1.187 -85.895,1.051C-86.988,0.922 -88.125,1.065 -89.255,0.965C-90.349,0.858 -91.435,0.436 -92.564,0.358C-93.665,0.287 -94.773,-0.014 -95.896,-0.071C-97.004,-0.121 -98.133,0.029 -99.263,-0.007C-100.349,-0.035 -101.457,0.15 -102.558,0.144C-103.659,0.15 -104.767,-0.035 -105.853,-0.007C-106.982,0.029 -108.112,-0.121 -109.22,-0.071C-110.342,-0.014 -111.45,0.287 -112.551,0.358C-113.681,0.436 -114.767,0.858 -115.861,0.965C-116.99,1.065 -118.127,0.922 -119.221,1.051C-120.343,1.187 -121.501,1.008 -122.587,1.165C-123.681,1.337 -124.661,2.066 -125.704,2.252C-126.791,2.445 -127.927,2.281 -128.964,2.481C-130.05,2.695 -131.044,3.231 -132.081,3.453C-133.16,3.696 -134.311,3.532 -135.34,3.789C-136.412,4.054 -137.313,4.875 -138.335,5.162C-139.4,5.447 -140.451,5.655 -141.466,5.969C-142.674,6.341 -143.861,6.62 -144.976,6.992C-146.177,7.385 -147.392,7.599 -148.5,7.985C-149.687,8.407 -150.902,8.65 -152.003,9.064C-153.175,9.515 -154.24,10.137 -155.327,10.587C-156.485,11.066 -157.429,11.938 -158.501,12.432C-159.516,12.867 -160.509,13.289 -161.481,13.747C-162.482,14.219 -163.433,14.74 -164.384,15.227C-165.377,15.727 -166.464,15.984 -167.4,16.492C-168.387,17.014 -169.466,17.307 -170.396,17.821C-171.375,18.372 -172.404,18.793 -173.312,19.308C-174.863,20.266 -174.663,20.588 -176.208,21.56C-177.751,22.525 -177.952,22.225 -179.474,23.226C-180.847,24.126 -180.739,24.29 -182.098,25.22C-183.449,26.149 -183.549,26.013 -184.885,26.971C-186.065,27.815 -186.036,27.872 -187.194,28.744C-188.359,29.616 -188.181,29.852 -189.339,30.731C-190.254,31.432 -190.997,32.232 -191.805,32.904C-192.234,33.262 -192.706,33.548 -193.12,33.884C-193.856,34.477 -194.614,34.949 -195.229,35.485C-195.965,36.128 -196.759,36.571 -197.331,37.093C-197.381,37.143 -197.545,37.408 -197.595,37.451C-197.338,37.979 -196.723,38.48 -196.723,39.102C-196.723,40.21 -197.524,41.096 -198.253,41.825C-198.982,42.561 -199.868,43.255 -200.983,43.255C-202.091,43.255 -203.142,42.726 -203.872,41.997C-204.608,41.261 -205.115,40.21 -205.115,39.102C-205.115,37.987 -204.579,36.964 -203.85,36.235C-203.121,35.499 -202.091,35.12 -200.983,35.12C-200.226,35.12 -199.604,35.435 -199.003,35.799C-198.96,35.756 -198.854,35.549 -198.803,35.506C-198.239,34.949 -197.481,34.434 -196.745,33.748C-196.137,33.183 -195.479,32.568 -194.743,31.939C-194.35,31.603 -194.229,30.931 -193.813,30.567C-193.006,29.852 -192.198,29.066 -191.262,28.293C-190.111,27.372 -189.939,27.586 -188.789,26.664C-187.638,25.742 -187.437,25.999 -186.272,25.105C-184.942,24.09 -184.885,24.176 -183.534,23.19C-182.19,22.196 -182.441,21.853 -181.083,20.873C-179.724,19.937 -178.116,19.315 -176.615,18.35C-175.986,17.943 -175.628,17.078 -174.949,16.635C-174.005,16.07 -172.991,15.584 -172.011,15.019C-171.061,14.469 -169.853,14.34 -168.866,13.79C-167.901,13.253 -167.086,12.432 -166.092,11.902C-165.113,11.388 -164.234,10.644 -163.226,10.151C-162.232,9.658 -161.16,9.322 -160.131,8.857C-159.037,8.328 -157.958,7.656 -156.792,7.149C-155.67,6.656 -154.297,6.698 -153.118,6.227C-151.981,5.769 -150.917,5.069 -149.723,4.625C-148.572,4.204 -147.299,4.054 -146.099,3.646C-144.933,3.253 -143.811,2.695 -142.596,2.316C-141.552,1.988 -140.458,1.78 -139.372,1.48C-138.321,1.18 -137.299,0.715 -136.198,0.436C-135.14,0.172 -134.025,0.036 -132.924,-0.214C-131.859,-0.45 -130.779,-0.722 -129.665,-0.95C-128.599,-1.165 -127.548,-1.601 -126.426,-1.801C-125.354,-2.001 -124.253,-2.187 -123.131,-2.373C-122.008,-2.544 -120.879,-2.766 -119.721,-2.909C-118.591,-3.044 -117.412,-2.794 -116.254,-2.909C-115.117,-3.023 -113.974,-3.102 -112.816,-3.188C-111.679,-3.273 -110.542,-3.431 -109.385,-3.495C-108.248,-3.56 -107.118,-4.074 -105.953,-4.117C-104.838,-4.153 -103.694,-3.795 -102.558,-3.795C-101.421,-3.795 -100.277,-4.153 -99.162,-4.117C-97.997,-4.074 -96.868,-3.56 -95.731,-3.495C-94.573,-3.431 -93.437,-3.273 -92.3,-3.188C-91.142,-3.102 -89.998,-3.023 -88.861,-2.909C-87.703,-2.794 -86.524,-3.044 -85.395,-2.909C-84.236,-2.766 -83.107,-2.544 -81.984,-2.373C-80.862,-2.187 -79.762,-2.001 -78.689,-1.801C-77.567,-1.601 -76.517,-1.165 -75.451,-0.95C-74.336,-0.722 -73.257,-0.45 -72.191,-0.214C-71.091,0.036 -69.976,0.172 -68.918,0.436C-67.816,0.715 -66.795,1.18 -65.744,1.48C-64.657,1.78 -63.563,1.988 -62.52,2.316C-61.305,2.695 -60.183,3.253 -59.018,3.646C-57.816,4.054 -56.544,4.204 -55.393,4.625C-54.199,5.069 -53.134,5.769 -51.997,6.227C-50.818,6.698 -49.445,6.656 -48.323,7.149C-47.158,7.656 -46.079,8.328 -44.985,8.857C-43.956,9.322 -42.884,9.658 -41.89,10.151C-40.882,10.644 -40.003,11.388 -39.023,11.902C-38.029,12.432 -37.215,13.253 -36.25,13.79C-35.263,14.34 -34.055,14.469 -33.104,15.019C-32.125,15.584 -31.11,16.07 -30.166,16.635C-29.487,17.078 -29.13,17.943 -28.501,18.35C-27,19.315 -25.392,19.937 -24.033,20.873C-22.675,21.853 -22.925,22.196 -21.581,23.19C-20.23,24.176 -20.173,24.09 -18.844,25.105C-17.679,25.999 -17.479,25.742 -16.327,26.664C-15.177,27.586 -15.005,27.372 -13.854,28.293C-12.918,29.066 -12.109,29.852 -11.302,30.567C-10.888,30.931 -10.766,31.603 -10.373,31.939C-9.637,32.568 -8.979,33.183 -8.371,33.748C-7.635,34.434 -6.877,34.949 -6.312,35.506C-6.263,35.549 -6.155,35.756 -6.112,35.799C-5.512,35.435 -4.89,35.12 -4.132,35.12C-3.024,35.12 -1.995,35.499 -1.266,36.235C-0.536,36.964 0,37.987 0,39.102" style="fill:white;fill-rule:nonzero;"/>
    </g>
    <g transform="matrix(1,0,0,1,2.4425,273.269)">
        <path d="M0,-39.101C0,-40.209 0.508,-41.26 1.244,-41.997C1.973,-42.726 3.024,-43.254 4.132,-43.254C5.247,-43.254 6.133,-42.561 6.862,-41.825C7.592,-41.096 8.393,-40.209 8.393,-39.101C8.393,-38.48 7.777,-37.979 7.521,-37.451C7.57,-37.408 7.735,-37.143 7.785,-37.093C8.356,-36.571 9.15,-36.127 9.886,-35.485C10.501,-34.949 11.259,-34.476 11.995,-33.883C12.41,-33.547 12.881,-33.261 13.311,-32.904C14.118,-32.232 14.861,-31.431 15.777,-30.731C16.935,-29.851 16.756,-29.616 17.921,-28.744C19.079,-27.872 19.05,-27.814 20.23,-26.97C21.567,-26.013 21.667,-26.149 23.018,-25.219C24.376,-24.289 24.269,-24.125 25.641,-23.225C27.164,-22.224 27.364,-22.524 28.908,-21.559C30.452,-20.587 30.252,-20.265 31.803,-19.307C32.711,-18.792 33.74,-18.372 34.72,-17.821C35.649,-17.306 36.729,-17.013 37.715,-16.491C38.651,-15.984 39.738,-15.726 40.731,-15.226C41.682,-14.74 42.633,-14.218 43.634,-13.747C44.606,-13.289 45.6,-12.867 46.615,-12.431C47.687,-11.938 48.63,-11.066 49.789,-10.586C50.875,-10.136 51.94,-9.514 53.112,-9.064C54.213,-8.65 55.428,-8.407 56.615,-7.985C57.723,-7.599 58.938,-7.384 60.139,-6.991C61.254,-6.62 62.441,-6.34 63.649,-5.969C64.664,-5.655 65.715,-5.447 66.78,-5.162C67.802,-4.875 68.703,-4.053 69.775,-3.788C70.805,-3.532 71.956,-3.696 73.035,-3.453C74.071,-3.231 75.065,-2.695 76.152,-2.481C77.188,-2.281 78.325,-2.445 79.411,-2.251C80.455,-2.066 81.434,-1.336 82.528,-1.165C83.614,-1.008 84.772,-1.187 85.895,-1.051C86.988,-0.922 88.125,-1.065 89.254,-0.965C90.348,-0.858 91.435,-0.436 92.564,-0.357C93.665,-0.286 94.773,0.014 95.896,0.072C97.003,0.122 98.133,-0.029 99.262,0.007C100.349,0.036 101.457,-0.15 102.558,-0.143C103.658,-0.15 104.767,0.036 105.853,0.007C106.982,-0.029 108.112,0.122 109.22,0.072C110.342,0.014 111.45,-0.286 112.551,-0.357C113.681,-0.436 114.767,-0.858 115.86,-0.965C116.99,-1.065 118.127,-0.922 119.221,-1.051C120.343,-1.187 121.501,-1.008 122.587,-1.165C123.681,-1.336 124.66,-2.066 125.704,-2.251C126.79,-2.445 127.927,-2.281 128.964,-2.481C130.05,-2.695 131.044,-3.231 132.08,-3.453C133.16,-3.696 134.311,-3.532 135.34,-3.788C136.412,-4.053 137.312,-4.875 138.335,-5.162C139.4,-5.447 140.451,-5.655 141.466,-5.969C142.674,-6.34 143.86,-6.62 144.976,-6.991C146.177,-7.384 147.392,-7.599 148.5,-7.985C149.687,-8.407 150.901,-8.65 152.003,-9.064C153.175,-9.514 154.24,-10.136 155.326,-10.586C156.484,-11.066 157.429,-11.938 158.501,-12.431C159.516,-12.867 160.509,-13.289 161.481,-13.747C162.482,-14.218 163.433,-14.74 164.384,-15.226C165.377,-15.726 166.464,-15.984 167.4,-16.491C168.387,-17.013 169.466,-17.306 170.396,-17.821C171.375,-18.372 172.404,-18.792 173.312,-19.307C174.863,-20.265 174.663,-20.587 176.207,-21.559C177.751,-22.524 177.951,-22.224 179.474,-23.225C180.847,-24.125 180.739,-24.289 182.098,-25.219C183.448,-26.149 183.549,-26.013 184.885,-26.97C186.064,-27.814 186.036,-27.872 187.194,-28.744C188.359,-29.616 188.181,-29.851 189.339,-30.731C190.254,-31.431 190.997,-32.232 191.805,-32.904C192.233,-33.261 192.705,-33.547 193.12,-33.883C193.856,-34.476 194.614,-34.949 195.229,-35.485C195.965,-36.127 196.759,-36.571 197.33,-37.093C197.381,-37.143 197.545,-37.408 197.595,-37.451C197.338,-37.979 196.723,-38.48 196.723,-39.101C196.723,-40.209 197.523,-41.096 198.253,-41.825C198.981,-42.561 199.868,-43.254 200.983,-43.254C202.091,-43.254 203.142,-42.726 203.871,-41.997C204.607,-41.26 205.115,-40.209 205.115,-39.101C205.115,-37.987 204.579,-36.964 203.85,-36.235C203.121,-35.498 202.091,-35.12 200.983,-35.12C200.226,-35.12 199.604,-35.434 199.003,-35.799C198.96,-35.756 198.854,-35.548 198.803,-35.506C198.238,-34.949 197.48,-34.434 196.744,-33.747C196.137,-33.183 195.479,-32.568 194.743,-31.939C194.35,-31.603 194.229,-30.931 193.813,-30.566C193.006,-29.851 192.198,-29.065 191.262,-28.293C190.11,-27.371 189.939,-27.585 188.788,-26.663C187.638,-25.741 187.437,-25.998 186.271,-25.105C184.942,-24.09 184.885,-24.175 183.534,-23.189C182.19,-22.196 182.44,-21.852 181.082,-20.873C179.724,-19.937 178.115,-19.315 176.614,-18.35C175.985,-17.942 175.628,-17.078 174.949,-16.634C174.006,-16.07 172.99,-15.583 172.011,-15.019C171.061,-14.468 169.853,-14.339 168.866,-13.789C167.9,-13.253 167.086,-12.431 166.092,-11.902C165.113,-11.387 164.233,-10.644 163.226,-10.151C162.232,-9.658 161.16,-9.322 160.131,-8.857C159.037,-8.328 157.957,-7.656 156.792,-7.148C155.67,-6.655 154.297,-6.698 153.118,-6.226C151.981,-5.769 150.916,-5.068 149.723,-4.625C148.571,-4.204 147.299,-4.053 146.099,-3.646C144.933,-3.252 143.811,-2.695 142.596,-2.316C141.552,-1.987 140.458,-1.78 139.372,-1.48C138.321,-1.179 137.299,-0.714 136.198,-0.436C135.14,-0.171 134.024,-0.036 132.924,0.214C131.858,0.451 130.779,0.722 129.664,0.951C128.599,1.166 127.548,1.601 126.426,1.801C125.354,2.002 124.253,2.187 123.131,2.374C122.008,2.545 120.879,2.766 119.721,2.91C118.592,3.045 117.412,2.795 116.254,2.91C115.117,3.024 113.974,3.102 112.815,3.188C111.679,3.274 110.542,3.431 109.385,3.496C108.248,3.56 107.118,4.075 105.953,4.118C104.838,4.153 103.694,3.795 102.558,3.795C101.421,3.795 100.277,4.153 99.162,4.118C97.997,4.075 96.868,3.56 95.731,3.496C94.573,3.431 93.437,3.274 92.3,3.188C91.142,3.102 89.998,3.024 88.861,2.91C87.703,2.795 86.524,3.045 85.395,2.91C84.236,2.766 83.107,2.545 81.985,2.374C80.862,2.187 79.761,2.002 78.689,1.801C77.567,1.601 76.516,1.166 75.451,0.951C74.336,0.722 73.256,0.451 72.191,0.214C71.09,-0.036 69.976,-0.171 68.917,-0.436C67.816,-0.714 66.794,-1.179 65.744,-1.48C64.657,-1.78 63.563,-1.987 62.52,-2.316C61.305,-2.695 60.182,-3.252 59.017,-3.646C57.816,-4.053 56.543,-4.204 55.393,-4.625C54.199,-5.068 53.134,-5.769 51.998,-6.226C50.818,-6.698 49.445,-6.655 48.323,-7.148C47.158,-7.656 46.079,-8.328 44.985,-8.857C43.956,-9.322 42.883,-9.658 41.89,-10.151C40.882,-10.644 40.002,-11.387 39.023,-11.902C38.029,-12.431 37.214,-13.253 36.25,-13.789C35.263,-14.339 34.055,-14.468 33.104,-15.019C32.125,-15.583 31.11,-16.07 30.166,-16.634C29.487,-17.078 29.13,-17.942 28.5,-18.35C27,-19.315 25.391,-19.937 24.033,-20.873C22.675,-21.852 22.925,-22.196 21.581,-23.189C20.23,-24.175 20.173,-24.09 18.843,-25.105C17.678,-25.998 17.478,-25.741 16.327,-26.663C15.176,-27.585 15.004,-27.371 13.854,-28.293C12.917,-29.065 12.109,-29.851 11.302,-30.566C10.887,-30.931 10.766,-31.603 10.373,-31.939C9.636,-32.568 8.979,-33.183 8.371,-33.747C7.635,-34.434 6.877,-34.949 6.312,-35.506C6.262,-35.548 6.155,-35.756 6.112,-35.799C5.512,-35.434 4.89,-35.12 4.132,-35.12C3.024,-35.12 1.995,-35.498 1.266,-36.235C0.536,-36.964 0,-37.987 0,-39.101" style="fill:white;fill-rule:nonzero;"/>
    </g>
</svg>
